<svg xmlns="http://www.w3.org/2000/svg" viewBox="0 0 30 30" width="30" height="30"><defs><clipPath id="a"><path d="M0 485.2h485.2V0H0v485.2z"/></clipPath></defs><g clip-path="url(#a)" transform="matrix(.0618 0 0 -.0618 0 30)" fill="#7479ee"><path d="M182 166.8c-75.25 0-136.5 61.21-136.5 136.5 0 75.25 61.21 136.5 136.5 136.5 75.25 0 136.5-61.21 136.5-136.5S257.25 166.8 182 166.8m182 136.5c0 100.5-81.47 182-182 182S0 403.83 0 303.3s81.47-182 182-182 182 81.47 182 182M471.9 77.65l-111.3 111.3c-16.6-25.77-38.6-47.71-64.3-64.3l111.3-111.3c17.77-17.77 46.59-17.77 64.32 0 17.75 17.72 17.75 46.53-.02 64.3"/></g></svg>